<?xml version="1.0" standalone="no"?>
<!DOCTYPE svg PUBLIC "-//W3C//DTD SVG 20010904//EN"
 "http://www.w3.org/TR/2001/REC-SVG-20010904/DTD/svg10.dtd">
<svg version="1.0" xmlns="http://www.w3.org/2000/svg"
 width="1024.000000pt" height="1024.000000pt" viewBox="0 0 1024.000000 1024.000000"
 preserveAspectRatio="xMidYMid meet">

<g transform="translate(0.000000,1024.000000) scale(0.100000,-0.100000)"
fill="#000000" stroke="none">
<path d="M0 5120 l0 -5120 5120 0 5120 0 0 5120 0 5120 -5120 0 -5120 0 0
-5120z m5525 4064 c504 -61 1033 -265 1445 -557 149 -105 213 -157 360 -292
451 -415 787 -995 955 -1651 67 -261 90 -486 82 -814 -7 -329 -57 -616 -162
-935 -49 -149 -125 -326 -138 -318 -5 3 -7 1 -4 -5 9 -13 -53 -123 -65 -116
-5 3 -7 2 -6 -3 4 -14 -13 -53 -23 -53 -6 0 -8 3 -5 8 2 4 1 268 -2 587 l-7
580 -27 55 c-29 59 -82 119 -138 156 -82 54 -77 54 -1087 54 -900 0 -933 1
-933 18 0 33 39 134 73 186 17 28 86 118 152 201 141 177 169 219 229 345 54
117 84 230 98 381 12 128 7 178 -36 346 -37 147 -86 261 -160 372 -226 340
-569 537 -951 546 -159 4 -243 -6 -370 -45 -350 -108 -600 -323 -751 -646 -66
-141 -94 -259 -101 -424 -14 -338 77 -584 328 -880 85 -100 174 -233 193 -288
8 -22 16 -57 18 -78 l3 -39 -760 -5 -760 -5 -50 -25 c-65 -31 -132 -101 -164
-170 l-26 -55 -3 -772 c-1 -425 -6 -773 -10 -773 -5 0 -45 38 -90 84 -75 76
-82 87 -82 123 0 57 -51 153 -110 206 -49 44 -126 77 -180 77 -25 0 -32 7 -55
58 -104 223 -214 568 -249 782 -34 212 -38 286 -33 596 6 347 18 442 96 744
39 154 135 443 165 497 8 15 47 93 87 173 165 333 354 593 638 878 333 332
790 610 1254 761 214 70 350 99 632 137 181 24 526 23 730 -2z m-201 -1229
c156 -42 296 -120 413 -229 184 -172 276 -381 276 -626 0 -264 -80 -440 -309
-680 -126 -132 -158 -186 -199 -326 -22 -74 -25 -106 -25 -230 l0 -144 -135 0
-135 0 0 524 0 524 -26 31 c-39 47 -102 42 -129 -10 -13 -23 -15 -111 -15
-549 l0 -520 -135 0 -135 0 0 153 c0 266 -38 360 -220 552 -128 134 -175 199
-225 308 -197 426 -10 938 422 1155 73 37 190 74 268 85 63 9 252 -2 309 -18z
m-805 -2639 c12 -33 32 -79 46 -102 14 -23 25 -45 25 -48 0 -3 -36 -6 -80 -6
l-80 0 0 -336 0 -336 68 60 c171 152 388 240 564 230 l53 -3 3 -137 3 -136
-58 -7 c-188 -21 -330 -97 -428 -227 -86 -115 -122 -204 -134 -333 l-6 -70
-144 -3 -144 -3 7 80 c8 97 44 245 80 325 l26 58 0 418 0 418 -485 0 -485 0
-96 101 c-53 56 -101 101 -106 101 -6 0 31 -44 81 -99 l91 -99 0 -1680 0
-1680 -140 -135 c-77 -74 -140 -138 -140 -141 0 -18 84 54 197 169 l128 130
645 3 c355 2 646 4 647 6 1 1 3 51 4 111 l2 110 -607 -3 -606 -3 0 595 0 596
395 0 396 0 -2 -331 c-1 -181 2 -333 6 -337 4 -4 99 -9 211 -10 l204 -4 0 117
c0 116 0 116 -29 140 -38 33 -55 76 -49 129 6 53 37 100 78 118 17 7 30 15 30
18 0 3 -26 20 -58 38 -165 95 -317 287 -380 482 -22 66 -42 173 -42 221 l0 26
142 -1 142 -1 12 -71 c45 -266 277 -485 544 -512 l65 -7 0 -135 0 -135 -90 3
c-49 2 -107 7 -128 12 -34 7 -37 6 -32 -11 12 -36 7 -97 -10 -125 -9 -16 -34
-42 -56 -57 l-40 -29 3 -106 3 -107 175 -3 175 -2 -2 -247 c-2 -135 -4 -247
-5 -248 -2 -2 -79 -5 -173 -8 -93 -3 -171 -6 -172 -6 -2 -1 6 -214 9 -217 2
-1 83 -4 181 -6 l177 -3 0 258 0 257 690 0 690 0 0 -152 c0 -323 7 -450 30
-518 47 -140 166 -250 298 -274 l32 -5 0 589 0 590 -870 0 -871 0 3 108 3 107
866 3 866 2 6 728 c4 400 7 933 7 1185 l0 457 -203 0 -203 0 -2 -203 c-3 -198
-2 -204 19 -223 25 -22 69 -110 69 -139 0 -43 -23 -98 -56 -135 l-35 -38 2
-223 2 -223 38 -34 c46 -42 74 -107 65 -155 -3 -19 -22 -56 -41 -83 l-35 -49
1 -209 c1 -202 2 -210 25 -244 49 -72 21 -167 -60 -203 -50 -22 -92 -18 -144
13 -68 41 -79 121 -28 199 26 38 26 40 26 239 l0 200 -35 45 c-19 25 -37 62
-41 81 -13 69 33 158 94 183 26 11 30 19 36 64 3 29 6 123 6 210 l0 157 -25 0
c-32 0 -93 25 -118 48 -58 52 -77 166 -40 239 24 47 89 94 140 102 l38 6 3
188 2 187 -167 1 c-93 0 -194 2 -225 4 -66 5 -66 4 -70 -93 -1 -35 -4 -59 -6
-53 -2 6 -9 8 -15 4 -9 -5 -9 -3 -2 8 15 19 12 84 -3 84 -7 0 -17 7 -22 15 -8
11 -9 9 -6 -10 3 -14 5 -38 5 -53 1 -19 5 -26 13 -21 7 4 8 3 4 -5 -4 -6 -12
-9 -17 -6 -5 4 -9 0 -9 -7 0 -9 -3 -9 -10 2 -5 8 -10 41 -10 73 l0 57 -84 0
-84 0 39 78 c47 93 58 156 55 318 l-3 122 631 7 c347 4 771 5 941 3 l310 -3
48 -28 c38 -22 54 -41 73 -80 22 -48 24 -64 24 -219 l0 -166 -97 -124 c-54
-69 -132 -169 -174 -224 -42 -54 -138 -178 -213 -274 -75 -96 -177 -228 -226
-292 l-90 -117 0 -1400 0 -1401 -62 0 c-35 0 -957 -1 -2051 -3 l-1987 -3 2
2095 c3 2249 0 2112 52 2169 53 59 16 57 811 62 l730 5 6 -155 c5 -121 11
-168 28 -214z m1081 89 l0 -115 -470 0 -470 0 0 115 0 115 470 0 470 0 0 -115z
m292 -322 c-2 -12 -6 -23 -7 -23 -1 0 -5 11 -7 23 -3 14 0 24 7 24 7 0 10 -10
7 -24z m-403 -45 c-39 -49 -120 -111 -181 -138 -58 -25 -186 -44 -262 -37 -37
3 -82 17 -122 37 -64 31 -159 114 -183 158 l-12 23 396 -2 395 -1 -31 -40z
m-1610 -258 c89 -25 152 -103 153 -189 0 -61 -23 -110 -72 -155 -77 -69 -172
-72 -258 -9 -102 76 -94 248 14 322 55 38 105 48 163 31z m1299 -26 c25 -15
25 -15 8 0 -19 15 -17 16 33 16 114 0 278 -54 398 -133 243 -158 386 -398 408
-685 l8 -92 -142 0 -141 0 0 25 c0 61 -34 186 -71 262 -91 188 -279 323 -484
348 -49 7 -53 9 -59 37 -10 52 -7 238 4 238 6 0 23 -7 38 -16z m2610 -1327 l2
-1117 -33 0 c-54 0 -145 -28 -221 -68 -206 -108 -322 -340 -287 -572 13 -86
71 -216 121 -273 l32 -37 -119 0 -120 0 -7 610 c-4 335 -4 958 0 1382 l6 773
33 35 c18 19 74 90 123 157 50 66 97 125 104 130 18 11 341 102 353 99 7 -2
11 -386 13 -1119z m-5471 937 c69 -56 78 -76 81 -180 l4 -94 -190 0 c-211 0
-202 -3 -202 71 0 97 44 179 118 219 56 31 140 23 189 -16z m2798 -243 l0
-124 -30 -10 c-41 -13 -84 -55 -93 -92 l-8 -30 -100 -3 c-54 -2 -109 0 -120 2
-21 6 -21 8 -10 68 25 128 84 213 185 267 57 30 128 51 161 47 12 -1 15 -22
15 -125z m93 115 c101 -27 199 -103 243 -189 21 -40 51 -172 41 -182 -3 -3
-55 -5 -116 -5 l-111 0 -21 49 c-17 39 -30 52 -68 70 l-46 23 0 124 c0 138 -5
132 78 110z m-3324 -636 c0 -250 3 -413 10 -445 8 -34 10 -323 8 -922 l-3
-873 -466 0 -466 0 6 488 c6 558 16 663 83 952 58 245 141 470 258 695 124
241 242 401 444 603 l117 117 5 -110 c3 -60 5 -288 4 -505z m6839 380 c105
-127 165 -211 246 -342 l41 -68 -100 0 -100 0 0 59 c0 45 -4 60 -16 65 -29 11
-44 -13 -44 -70 l0 -54 -190 0 -190 0 0 133 0 132 73 -3 c58 -3 76 -1 86 12
28 34 7 46 -79 46 l-81 0 3 31 c3 30 7 33 78 54 41 13 104 34 140 48 36 14 67
26 71 26 3 1 31 -30 62 -69z m-6503 34 c0 -19 -5 -24 -23 -24 -13 0 -58 -3
-100 -6 l-77 -7 0 31 0 31 100 0 c99 -1 100 -1 100 -25z m1647 -49 c52 -22 72
-42 99 -100 27 -56 28 -74 13 -128 -37 -135 -210 -187 -315 -95 -47 42 -65 80
-67 142 -2 141 139 236 270 181z m-1599 -35 l132 0 0 -210 0 -210 -142 2 c-79
1 -164 3 -190 6 l-48 4 0 210 0 210 58 -5 c31 -4 117 -6 190 -7z m6045 -20
c-5 -18 -14 -20 -99 -20 -52 0 -94 4 -94 9 0 5 30 14 68 20 134 21 133 21 125
-9z m-3319 -92 c22 -49 47 -74 89 -92 l37 -15 0 -104 c0 -118 -2 -121 -69
-106 -106 24 -213 105 -260 197 -28 56 -47 132 -33 141 6 3 58 7 116 9 l105 3
15 -33z m492 -10 c-22 -141 -169 -285 -311 -305 l-45 -6 0 112 c0 99 2 111 18
111 33 0 79 38 100 84 l22 46 111 0 112 0 -7 -42z m540 -3 c-3 -22 -8 -62 -11
-90 -4 -27 -20 -90 -37 -139 -115 -339 -454 -585 -813 -591 l-30 0 0 135 0
134 77 12 c104 16 166 38 238 85 152 98 259 257 285 424 13 81 1 75 156 72
l139 -2 -4 -40z m2284 -105 l0 -130 -95 0 -95 0 0 130 0 130 95 0 95 0 0 -130z
m0 -335 l0 -145 -95 0 -95 0 0 145 0 145 95 0 95 0 0 -145z m445 -2 l0 -143
-192 0 -193 0 0 145 0 145 192 -2 192 -3 1 -142z m339 27 c82 -176 151 -389
185 -575 26 -134 51 -349 51 -427 l0 -58 -259 0 -260 0 3 63 2 62 125 2 c155
4 169 6 169 38 0 31 -11 33 -150 33 -63 0 -123 1 -133 1 -16 1 -17 13 -15 144
l3 142 135 1 c74 1 140 2 146 3 20 2 24 30 8 46 -12 12 -43 15 -155 15 l-139
0 0 124 c0 68 3 131 6 140 5 14 29 16 155 16 124 0 151 3 155 15 14 37 -13 44
-165 47 l-146 3 -3 143 -3 143 116 -3 116 -3 53 -115z m-6694 -1040 l0 -990
-190 0 -190 0 0 990 0 990 190 0 190 0 0 -990z m5908 668 l-3 -143 -80 0 c-44
0 -86 1 -92 3 -10 3 -13 41 -13 143 l0 139 95 0 96 0 -3 -142z m445 0 l-3
-143 -187 0 -188 0 -3 143 -3 142 193 0 193 0 -2 -142z m-443 -344 c0 -105 -3
-143 -12 -146 -7 -2 -49 -3 -93 -3 l-80 0 -3 142 -3 142 48 3 c27 2 69 3 96 3
l47 0 0 -141z m445 -3 l0 -142 -117 0 c-65 0 -152 0 -193 1 l-75 0 0 138 c0
76 2 141 5 144 3 3 90 5 193 4 l187 -2 0 -143z m-443 -276 l3 -65 -97 0 -98 0
0 65 0 65 94 0 94 0 4 -65z m438 0 l0 -65 -190 0 -190 0 0 65 0 65 190 0 190
0 0 -65z m588 -625 l-3 -410 -616 0 -616 0 38 40 c44 46 91 141 109 220 44
186 -23 404 -159 520 l-46 40 648 0 648 0 -3 -410z m-1445 316 c71 -36 140
-108 175 -184 24 -50 27 -69 27 -157 0 -91 -3 -106 -31 -165 -52 -109 -137
-176 -255 -201 -138 -30 -299 62 -366 208 -34 73 -42 196 -19 275 60 208 287
316 469 224z m-5179 -714 c3 -5 -14 -9 -37 -9 l-42 -1 35 8 c19 4 36 8 37 9 1
0 4 -3 7 -7z"/>
<path d="M5065 8868 l-26 -31 3 -169 3 -170 29 -25 c36 -31 80 -26 114 13 21
24 22 33 22 189 0 161 0 164 -26 194 -36 43 -82 43 -119 -1z"/>
<path d="M4014 8560 c-31 -12 -54 -49 -54 -88 0 -28 16 -50 101 -143 56 -61
112 -117 125 -125 48 -32 124 14 124 76 0 32 -31 77 -130 185 -96 105 -115
116 -166 95z"/>
<path d="M6112 8488 c-170 -177 -182 -199 -141 -252 26 -33 62 -48 94 -40 31
8 245 248 245 275 0 52 -47 99 -100 99 -10 0 -54 -37 -98 -82z"/>
<path d="M3585 8005 c-28 -27 -34 -88 -12 -117 7 -9 70 -50 139 -92 142 -86
178 -94 218 -51 30 32 32 85 5 116 -33 36 -267 169 -298 169 -16 0 -38 -10
-52 -25z"/>
<path d="M6520 7984 c-174 -105 -194 -119 -203 -147 -18 -57 21 -117 76 -117
30 0 250 123 288 161 28 28 25 94 -6 124 -35 35 -69 31 -155 -21z"/>
<path d="M6521 7139 c-56 -34 -67 -89 -27 -136 l24 -28 154 -2 c181 -2 214 5
234 53 17 41 10 74 -20 103 -20 19 -37 21 -179 25 -137 3 -159 1 -186 -15z"/>
<path d="M3386 7119 c-31 -37 -33 -77 -5 -113 l20 -26 164 0 c90 0 171 3 180
6 21 8 45 56 45 89 0 14 -11 37 -25 50 -24 25 -27 25 -189 25 l-164 0 -26 -31z"/>
<path d="M6354 6480 c-30 -12 -54 -54 -54 -93 0 -47 30 -74 169 -154 136 -78
178 -86 217 -40 30 35 31 85 4 119 -21 27 -278 178 -301 177 -8 0 -23 -4 -35
-9z"/>
<path d="M3730 6410 c-63 -39 -127 -81 -142 -94 -36 -31 -37 -74 -2 -115 42
-50 77 -44 215 39 127 76 159 106 159 152 0 39 -48 88 -87 88 -17 -1 -75 -29
-143 -70z"/>
<path d="M7980 4693 c0 -5 12 -20 28 -34 l27 -24 -25 30 c-14 17 -26 32 -27
34 -2 2 -3 0 -3 -6z"/>
<path d="M7989 4647 c6 -8 7 -18 3 -22 -4 -5 -1 -5 6 -1 10 6 10 11 1 22 -6 8
-14 14 -16 14 -3 0 0 -6 6 -13z"/>
<path d="M8009 4613 c-13 -16 -12 -17 4 -4 9 7 17 15 17 17 0 8 -8 3 -21 -13z"/>
<path d="M8032 4610 c-9 -15 -9 -21 1 -26 6 -4 9 -4 5 1 -4 4 -3 14 4 22 6 7
9 15 7 18 -3 2 -10 -4 -17 -15z"/>
<path d="M5852 5065 c0 -16 2 -22 5 -12 2 9 2 23 0 30 -3 6 -5 -1 -5 -18z"/>
<path d="M1712 3558 c-6 -29 -18 -74 -26 -100 l-15 -48 68 0 69 0 -24 76 c-20
65 -47 124 -57 124 -2 0 -8 -24 -15 -52z"/>
<path d="M7675 1933 c-110 -58 -151 -185 -92 -286 29 -49 89 -92 143 -103 46
-9 111 13 155 53 67 60 89 127 69 202 -13 51 -70 117 -118 137 -45 18 -119 17
-157 -3z"/>
</g>
</svg>
